<svg xmlns="http://www.w3.org/2000/svg" viewBox="0 0 32 32">
  <rect width="32" height="32" rx="8" fill="#0a84ff"/>

  <path d="M9.2 9.1c-1.5-2.9.3-5.5 3.1-4.4 1.4.6 2.1 2 1.8 3.6" fill="#a97854"/>
  <path d="M22.8 9.1c1.5-2.9-.3-5.5-3.1-4.4-1.4.6-2.1 2-1.8 3.6" fill="#a97854"/>
  <path d="M10.6 8c-.6-1.3.1-2.3 1.3-1.9.6.2.9.8.8 1.5" fill="#d6b28b"/>
  <path d="M21.4 8c.6-1.3-.1-2.3-1.3-1.9-.6.2-.9.8-.8 1.5" fill="#d6b28b"/>

  <path d="M8.5 31c.4-6.1 3.1-10 7.5-10s7.1 3.9 7.5 10z" fill="#b98962"/>
  <path d="M12.7 31c.2-3.8 1.3-6.1 3.3-6.1s3.1 2.3 3.3 6.1z" fill="#f0dbc3"/>

  <path d="M16 7c-5.6 0-9.9 4.1-9.9 10 0 5.5 4.2 9.4 9.9 9.4s9.9-3.9 9.9-9.4c0-5.9-4.3-10-9.9-10z" fill="#c89a70"/>
  <path d="M9.2 17.7c.9 4 3.4 6.5 6.8 6.5s5.9-2.5 6.8-6.5c-1.6 2.1-3.8 3.2-6.8 3.2s-5.2-1.1-6.8-3.2z" fill="#edcfb2"/>

  <circle cx="12.2" cy="14.5" r="1.55" fill="#10131a"/>
  <circle cx="19.8" cy="14.5" r="1.55" fill="#10131a"/>
  <circle cx="12.8" cy="13.9" r=".45" fill="#fff"/>
  <circle cx="20.4" cy="13.9" r=".45" fill="#fff"/>

  <path d="M13.6 17.4c.3-1 1.1-1.6 2.4-1.6s2.1.6 2.4 1.6c-.5.8-1.3 1.2-2.4 1.2s-1.9-.4-2.4-1.2z" fill="#171015"/>
  <path d="M13.4 19.9c.8 2.1 4.4 2.1 5.2 0 .2-.5-.1-.9-.6-.7-1.2.5-2.8.5-4 0-.5-.2-.8.2-.6.7z" fill="#33151c"/>
  <path d="M15.1 21c.5.6 1.3.9 2.1 0-.7-.2-1.4-.2-2.1 0z" fill="#ff9aa9"/>

  <path d="M10.2 28.2c.2-2.1 1.5-3.4 3.1-3.1.8.1 1.1.8.8 1.6-.5 1.2-1.6 2.1-3.1 2.5-.5.1-.9-.3-.8-1z" fill="#6d4934"/>
  <path d="M21.8 28.2c-.2-2.1-1.5-3.4-3.1-3.1-.8.1-1.1.8-.8 1.6.5 1.2 1.6 2.1 3.1 2.5.5.1.9-.3.8-1z" fill="#6d4934"/>
</svg>
