<svg xmlns="http://www.w3.org/2000/svg" viewBox="0 0 1254 1254">
  <rect width="1254" height="1254" rx="180" fill="#0a84ff"/>
  <g transform="translate(0.000000,1254.000000) scale(0.100000,-0.100000)"
fill="#fff" stroke="none">
<path d="M3365 11533 c-175 -31 -371 -116 -514 -223 -422 -315 -630 -916 -531
-1537 68 -426 300 -829 632 -1097 l47 -38 -44 -89 c-164 -326 -422 -946 -549
-1317 -156 -457 -210 -731 -210 -1062 0 -146 5 -213 23 -320 57 -339 247 -742
462 -983 l64 -71 5 179 c5 175 6 182 36 245 39 83 111 155 194 194 58 28 75
31 160 31 82 0 103 -4 153 -27 117 -55 203 -166 226 -292 7 -37 11 -215 11
-467 0 -357 2 -410 16 -423 19 -19 44 -21 44 -3 0 24 71 161 115 223 52 72
147 151 233 194 239 118 520 78 717 -102 98 -90 167 -201 196 -316 l13 -54
136 -65 c425 -205 741 -334 1109 -453 135 -44 249 -80 254 -80 5 0 27 15 50
34 102 81 216 124 353 133 169 11 339 -50 467 -167 l62 -57 210 52 c633 157
1070 342 1535 651 397 264 705 601 911 997 154 298 226 570 236 893 8 234 -10
402 -72 674 -86 377 -404 1206 -661 1724 l-59 119 25 16 c65 43 178 141 246
214 249 272 412 631 459 1017 58 476 -61 924 -333 1253 -179 216 -444 368
-713 407 -131 19 -339 8 -464 -24 -117 -31 -295 -114 -403 -189 -157 -108
-336 -303 -452 -492 -58 -93 -161 -302 -196 -395 -15 -41 -31 -79 -35 -84 -4
-4 -41 3 -81 17 -181 63 -460 126 -650 148 -60 7 -108 16 -108 21 0 4 18 24
40 44 46 41 56 65 40 94 -20 38 -75 53 -185 53 -158 -1 -345 -57 -496 -148
-64 -40 -79 -43 -79 -17 0 30 73 170 159 307 45 72 85 141 88 154 15 60 -86
79 -213 40 -233 -72 -462 -253 -619 -488 l-64 -97 -128 -27 c-70 -16 -173 -44
-227 -62 -55 -19 -101 -34 -102 -32 -1 1 -23 54 -49 117 -244 602 -601 953
-1070 1051 -109 23 -301 24 -420 2z m118 -599 c257 -58 491 -301 607 -629 42
-121 70 -239 70 -301 l0 -51 -108 -7 c-167 -10 -327 -66 -361 -127 -30 -54 17
-119 125 -176 30 -15 54 -33 54 -39 0 -6 -26 -18 -57 -28 -108 -33 -235 -101
-291 -157 -75 -75 -83 -121 -24 -151 48 -23 48 -25 16 -50 -16 -12 -77 -69
-137 -127 l-107 -105 -38 19 c-20 11 -89 72 -153 135 -154 152 -246 293 -313
480 -115 317 -106 653 23 925 58 121 123 209 199 269 153 122 314 161 495 120z
m5741 0 c231 -59 411 -267 486 -558 86 -339 14 -725 -194 -1039 -83 -125 -281
-321 -344 -341 -15 -5 -48 22 -146 118 -69 69 -126 127 -126 130 0 3 15 12 34
21 20 10 37 26 40 41 20 79 -153 213 -346 269 -32 9 -60 20 -63 25 -3 5 22 23
55 41 33 17 79 52 101 76 35 39 40 49 35 76 -15 78 -174 143 -379 154 -59 3
-110 9 -112 13 -10 16 29 201 65 307 94 279 276 508 488 613 132 65 283 86
406 54z m-4529 -2739 c199 -42 360 -199 431 -420 35 -105 43 -284 20 -395 -25
-118 -86 -231 -170 -314 -134 -133 -291 -189 -469 -166 -198 25 -360 148 -453
343 -131 277 -47 647 191 837 63 51 174 102 250 115 93 17 117 17 200 0z
m3177 1 c116 -21 199 -66 293 -161 89 -88 137 -170 177 -295 30 -98 33 -301 4
-394 -52 -174 -171 -322 -316 -396 -98 -50 -276 -69 -380 -41 -296 81 -491
386 -451 706 21 179 80 303 196 421 93 93 186 144 300 163 72 12 91 12 177 -3z
m-1487 -1071 c238 -62 374 -228 363 -441 -4 -70 -10 -94 -41 -157 -68 -137
-181 -235 -335 -290 l-88 -32 8 -37 c20 -98 104 -215 201 -282 201 -139 464
-121 627 43 57 56 110 145 110 183 0 9 14 28 32 43 27 23 39 26 72 22 48 -7
86 -44 86 -86 0 -36 -31 -123 -64 -182 -57 -101 -170 -200 -290 -255 -35 -16
-56 -32 -56 -42 0 -30 -89 -281 -130 -370 -101 -216 -258 -395 -411 -471 -152
-75 -306 -87 -469 -36 -102 33 -181 82 -268 168 -134 132 -250 338 -335 595
l-43 133 -84 41 c-117 57 -220 160 -280 280 -55 111 -57 159 -11 200 50 45
121 33 145 -24 52 -124 66 -147 115 -196 189 -190 510 -184 707 12 66 66 116
154 129 227 7 36 7 36 -43 52 -85 28 -135 53 -210 106 -318 226 -276 636 80
773 127 49 346 59 483 23z m-2641 -245 c139 -35 255 -121 306 -225 35 -71 36
-199 2 -265 -45 -86 -131 -156 -247 -200 -75 -28 -271 -39 -367 -20 -143 28
-282 120 -336 225 -58 110 -25 254 81 358 55 54 185 121 262 135 89 17 216 14
299 -8z m5207 6 c139 -30 280 -129 331 -235 15 -31 24 -70 26 -119 4 -63 1
-79 -24 -129 -15 -31 -46 -75 -68 -98 -52 -51 -164 -110 -247 -130 -84 -19
-258 -19 -334 0 -141 37 -254 119 -305 220 -37 75 -35 179 5 258 53 106 179
197 321 231 77 19 212 19 295 2z"/>
<path d="M4656 7968 c-53 -14 -110 -74 -124 -129 -36 -145 105 -272 241 -215
61 25 117 111 117 179 0 27 -28 89 -53 115 -45 48 -114 67 -181 50z"/>
<path d="M7693 7971 c-86 -21 -143 -89 -143 -173 0 -81 39 -145 107 -174 60
-26 146 -11 197 34 28 25 56 92 56 136 0 111 -111 202 -217 177z"/>
<path d="M6088 6940 c-59 -7 -105 -30 -115 -56 -9 -24 6 -63 28 -75 34 -18
347 -12 376 7 23 15 31 56 15 81 -23 36 -186 59 -304 43z"/>
<path d="M6040 5401 c-140 -45 -258 -136 -245 -189 20 -84 141 -218 240 -267
54 -27 70 -30 155 -30 84 0 102 3 153 28 73 36 163 119 204 188 52 90 52 94
-9 152 -58 57 -136 100 -219 122 -74 20 -211 18 -279 -4z"/>
<path d="M3080 5203 c-19 -10 -45 -33 -57 -52 l-23 -34 2 -1886 3 -1886 23
-57 c31 -76 105 -156 184 -199 l63 -34 3583 0 3584 0 32 36 c44 47 53 96 28
152 -14 31 -30 48 -55 60 -33 16 -280 17 -3546 17 -3865 0 -3560 -5 -3601 62
-20 33 -20 45 -20 1878 0 1737 -1 1847 -18 1879 -35 70 -116 98 -182 64z"/>
<path d="M4103 4466 c-184 -60 -302 -238 -291 -442 4 -70 10 -94 41 -157 71
-144 182 -216 348 -225 120 -6 218 28 302 106 l27 26 197 -98 c341 -170 616
-288 948 -406 183 -66 558 -186 658 -211 39 -9 48 -16 53 -38 41 -187 164
-310 343 -343 127 -24 274 26 373 125 l49 49 72 -25 c40 -14 212 -75 382 -137
298 -108 865 -305 952 -331 40 -11 43 -15 59 -68 58 -203 248 -328 456 -299
57 8 142 42 209 85 26 16 28 15 250 -114 371 -216 380 -220 454 -189 67 28 94
118 59 192 -18 38 -13 35 -380 240 l-231 129 -5 97 c-4 84 -9 106 -37 163 -18
36 -53 87 -79 113 -169 173 -459 160 -611 -28 -24 -30 -49 -56 -55 -58 -7 -1
-219 70 -471 158 -253 89 -572 201 -710 248 l-250 87 -7 53 c-31 216 -250 376
-467 341 -98 -15 -166 -52 -244 -132 l-67 -69 -73 22 c-559 169 -975 332
-1498 587 l-217 105 -11 85 c-14 110 -55 195 -127 263 -81 76 -148 104 -264
107 -61 2 -110 -2 -137 -11z"/>
</g>
</svg>
